<svg width="24" height="24" viewBox="0 0 24 24" fill="none" xmlns="http://www.w3.org/2000/svg">
<rect width="24" height="24" fill="url(#paint0_linear)"/>
<path d="M18.4219 8.43125C18.2124 7.94631 17.9104 7.50686 17.5328 7.1375C17.1549 6.76704 16.7093 6.47265 16.2203 6.27032C15.7132 6.05968 15.1694 5.95186 14.6203 5.95313C13.85 5.95313 13.0984 6.16407 12.4453 6.5625C12.2891 6.65782 12.1406 6.7625 12 6.87657C11.8594 6.7625 11.7109 6.65782 11.5547 6.5625C10.9016 6.16407 10.15 5.95313 9.37969 5.95313C8.825 5.95313 8.2875 6.05938 7.77969 6.27032C7.28906 6.47344 6.84687 6.76563 6.46719 7.1375C6.08906 7.50644 5.787 7.946 5.57812 8.43125C5.36094 8.93594 5.25 9.47188 5.25 10.0234C5.25 10.5438 5.35625 11.0859 5.56719 11.6375C5.74375 12.0984 5.99687 12.5766 6.32031 13.0594C6.83281 13.8234 7.5375 14.6203 8.4125 15.4281C9.8625 16.7672 11.2984 17.6922 11.3594 17.7297L11.7297 17.9672C11.8938 18.0719 12.1047 18.0719 12.2688 17.9672L12.6391 17.7297C12.7 17.6906 14.1344 16.7672 15.5859 15.4281C16.4609 14.6203 17.1656 13.8234 17.6781 13.0594C18.0016 12.5766 18.2562 12.0984 18.4312 11.6375C18.6422 11.0859 18.7484 10.5438 18.7484 10.0234C18.75 9.47188 18.6391 8.93594 18.4219 8.43125V8.43125Z" fill="#FDEFEF" fill-opacity="0.79"/>
<defs>
<linearGradient id="paint0_linear" x1="12" y1="4.17233e-07" x2="19" y2="16" gradientUnits="userSpaceOnUse">
<stop stop-color="#6544EE"/>
<stop offset="1" stop-color="#A5B6E0"/>
</linearGradient>
</defs>
</svg>
