<svg width="36" height="36" viewBox="0 0 36 36" fill="none" xmlns="http://www.w3.org/2000/svg">
<path d="M36 18C36 22.7739 34.1036 27.3523 30.7279 30.7279C27.3523 34.1036 22.7739 36 18 36C13.2261 36 8.64773 34.1036 5.27208 30.7279C1.89642 27.3523 0 22.7739 0 18C0 13.2261 1.89642 8.64773 5.27208 5.27208C8.64773 1.89642 13.2261 0 18 0C22.7739 0 27.3523 1.89642 30.7279 5.27208C34.1036 8.64773 36 13.2261 36 18V18ZM15.2775 11.4592C15.1093 11.3395 14.9113 11.2683 14.7054 11.2536C14.4994 11.2388 14.2933 11.281 14.1098 11.3756C13.9262 11.4702 13.7722 11.6135 13.6646 11.7897C13.5571 11.966 13.5001 12.1685 13.5 12.375V23.625C13.5001 23.8315 13.5571 24.034 13.6646 24.2103C13.7722 24.3865 13.9262 24.5298 14.1098 24.6244C14.2933 24.719 14.4994 24.7612 14.7054 24.7464C14.9113 24.7317 15.1093 24.6605 15.2775 24.5407L23.1525 18.9157C23.2983 18.8117 23.4172 18.6743 23.4992 18.515C23.5812 18.3557 23.624 18.1792 23.624 18C23.624 17.8208 23.5812 17.6443 23.4992 17.485C23.4172 17.3257 23.2983 17.1883 23.1525 17.0842L15.2775 11.4592V11.4592Z" fill="#1DB954"/>
<path d="M24.1579 16.9036C24.9474 17.3909 24.9474 18.6091 24.1579 19.0964L15.2763 24.5785C14.4868 25.0658 13.5 24.4567 13.5 23.4821V12.5179C13.5 11.5433 14.4868 10.9342 15.2763 11.4215L24.1579 16.9036Z" fill="white"/>
</svg>
